<svg xmlns="http://www.w3.org/2000/svg" viewBox="0 0 133.251 104.395"><defs><style>.a{fill:#e43226;}.b{fill:#ffd4d1;}</style></defs><g transform="translate(-214 -441)"><path class="a" d="M132.139,129.292,111.01,113.358v-6.4a2.8,2.8,0,0,0-1.112-2.232L68.309,73.366a2.8,2.8,0,0,0-3.366,0L23.354,104.728a2.8,2.8,0,0,0-1.112,2.232v6.4L1.113,129.292A2.8,2.8,0,0,0,0,131.524v28.238A2.8,2.8,0,0,0,2.8,162.557h127.66a2.8,2.8,0,0,0,2.795-2.795V131.524a2.8,2.8,0,0,0-1.112-2.232ZM69.648,156.966H63.6V142.877h6.045v14.089Zm5.59,0V140.082a2.8,2.8,0,0,0-2.795-2.8H60.809a2.8,2.8,0,0,0-2.795,2.8v16.884H27.832V108.352L66.626,79.1l38.794,29.254v48.614H75.238ZM5.591,132.916,22.242,120.36v36.607H5.591Zm122.07,24.05H111.01V120.36l16.651,12.557Z" transform="translate(213.999 382.839)"/><path class="b" d="M4.478,89.295,66.626,42.43,128.773,89.3a2.795,2.795,0,1,0,3.366-4.463L68.309,36.7a2.8,2.8,0,0,0-3.366,0L1.113,84.832a2.795,2.795,0,0,0,3.366,4.463Z" transform="translate(214 404.866)"/><g transform="translate(264.625 478.84)"><g transform="translate(0.001)"><path class="b" d="M307.728,303.527l-7.283-7.284a14.019,14.019,0,0,1-4.209,4.208l7.284,7.284a2.976,2.976,0,0,0,4.209-4.208Z" transform="translate(-276.853 -276.86)"/><path class="b" d="M23.811,11.905A11.905,11.905,0,1,0,11.906,23.81,11.906,11.906,0,0,0,23.811,11.905ZM11.906,20.834a8.929,8.929,0,1,1,8.929-8.929A8.938,8.938,0,0,1,11.906,20.834Z" transform="translate(-0.001)"/><path class="b" d="M75.817,82.761H77.8a4.966,4.966,0,0,1,4.961-4.96V75.816A6.953,6.953,0,0,0,75.817,82.761Z" transform="translate(-70.856 -70.855)"/></g></g></g></svg>