<svg xmlns="http://www.w3.org/2000/svg" viewBox="0 0 104.354 104.252"><defs><style>.a{fill:#ffd4d1;}.b{fill:#e43226;}</style></defs><g transform="translate(0 -0.239)"><path class="a" d="M151.551,85.268a6.957,6.957,0,0,1,5.666-8.044l10.914-1.894V53.159a3.55,3.55,0,0,0-3.55-3.551H116.167a3.551,3.551,0,0,0-3.55,3.551V75.281l11.193,1.943a6.957,6.957,0,0,1-2.377,13.71l-8.816-1.53V92a3.551,3.551,0,0,0,3.55,3.551h48.413A3.55,3.55,0,0,0,168.131,92V89.453l-8.537,1.481A6.959,6.959,0,0,1,151.551,85.268Z" transform="translate(-88.336 -38.725)"/><path class="b" d="M16.017,130.335a5.17,5.17,0,0,1-4.069-3.628L7.534,111.74l6.756,13.822a4.345,4.345,0,0,0,3.163,2.374l16.088,2.793a4.348,4.348,0,1,0,1.488-8.567l-13.9-2.414-5.781-11.827,5.9,8.214v-.025A12.49,12.49,0,0,0,8.754,103.62,8.755,8.755,0,0,0,0,112.374l.04,67.991a5.218,5.218,0,0,0,10.436,0V149.27h3.479v31.094a8.623,8.623,0,0,1-1.088,4.131,5.163,5.163,0,0,0,3.152,1.087,5.218,5.218,0,0,0,5.217-5.218l.007-49.12-4.236-.736Z" transform="translate(0 -81.092)"/><path class="b" d="M12.259,20.571A10.166,10.166,0,1,0,2.092,10.406,10.165,10.165,0,0,0,12.259,20.571Z" transform="translate(-1.641)"/><path class="b" d="M334.7,103.62a12.489,12.489,0,0,0-12.49,12.491v.253l5.006-6.619-4.891,10-13.9,2.414a4.348,4.348,0,1,0,1.488,8.567L326,127.937a4.345,4.345,0,0,0,3.163-2.374l5.864-12L331.5,126.707a4.958,4.958,0,0,1-3.94,3.607l-1.12.194-4.236.736.006,49.12a5.218,5.218,0,0,0,5.218,5.218,5.163,5.163,0,0,0,3.152-1.087,8.622,8.622,0,0,1-1.088-4.131V149.27h3.479v31.094a5.218,5.218,0,1,0,10.436,0l.04-44.387v-23.6A8.754,8.754,0,0,0,334.7,103.62Z" transform="translate(-239.098 -81.092)"/><path class="b" d="M397.772,20.571a10.166,10.166,0,1,0-10.167-10.165A10.164,10.164,0,0,0,397.772,20.571Z" transform="translate(-304.035)"/></g></svg>